<svg preserveAspectRatio="none" width="100%" height="100%" overflow="visible" style="display: block;" viewBox="0 0 283.682 280.309" fill="none" xmlns="http://www.w3.org/2000/svg">
<g id="caras-4 2" clip-path="url(#clip0_0_44)">
<path id="Vector" d="M210.816 159.705C209.875 162.005 208.647 164.223 207.133 166.376L208.385 172.425C207.083 173.236 205.708 174.062 204.251 174.897C204.415 182.444 201.959 186.463 196.876 186.954L179.466 183.181C171.297 182.542 169.578 183.656 166.999 191.571C162.858 204.283 165.313 221.382 177.469 228.962C179.875 232.94 185.531 238.973 185.531 238.973C189.509 244.44 193.905 249.237 198.734 253.346C188.282 253.395 177.968 251.455 168.088 248.32C148.361 242.067 131.475 229.216 121.251 211.298C120.441 209.538 120.032 208.662 120.032 208.662C123.51 195.786 127.726 180.16 123.65 166.998C118.01 160.098 112.624 152.404 110.185 143.776C111.29 138.235 105.879 135.313 100.96 134.936C100.035 127.79 97.0469 127.757 91.7755 131.621C91.6036 129.493 90.2612 128.404 88.3458 127.741C87.7237 123.534 84.3677 120.824 80.6925 119.302C79.6611 116.838 78.9572 111.329 78.6543 108.522C77.0991 106.696 77.0336 105.108 78.4661 103.741C76.8781 100.999 76.2233 98.249 76.5179 95.4905C78.155 92.4292 78.3269 89.9163 77.009 87.9681C74.447 85.5616 75.0282 83.3679 78.7607 81.3871C81.5601 79.2425 82.8452 76.8032 82.6161 74.0529C86.3486 73.1116 86.3895 70.1321 82.7306 65.1145C86.8725 70.9016 89.942 67.1445 89.9174 61.2591C91.9474 62.1186 94.3294 61.2264 97.0715 58.5907C100.395 57.3875 103.513 57.0273 106.419 57.4857C107.483 56.7981 108.155 55.7831 108.433 54.4407C111.543 54.7763 114.523 55.6685 117.371 57.0928C119.999 56.2579 122.52 55.2756 124.926 54.1378C126.924 55.3411 129.109 54.367 131.467 51.2402C132.85 52.6808 134.405 53.3111 136.149 53.1392C136.042 62.9781 140.782 59.4502 144.056 53.5485L146.241 57.2974C146.921 61.4556 148.5 63.5265 152.364 60.8171C155.523 65.2291 158.47 71.4091 151.725 73.8238C148.975 78.6204 149.204 81.4362 152.421 82.2711C176.192 79.9219 196.099 92.4128 199.34 116.985C198.595 128.322 201.607 137.735 210.096 145.282C212.019 147.558 211.25 149.662 207.796 151.593C205.815 154.139 206.821 156.848 210.816 159.705Z" fill="var(--fill-0, #7B7B49)"/>
<path id="Vector_2" opacity="0.64" d="M265.984 152.96C265.984 152.96 253.919 160.982 245.48 162.627C253.911 173.26 256.628 184.957 256.44 197.784C256.17 215.521 248.778 232.162 234.438 242.82C223.96 250.604 211.273 253.289 198.733 253.346C193.903 249.237 189.508 244.441 185.53 238.973C185.53 238.973 179.874 232.94 177.467 228.962C165.312 221.382 162.856 204.283 166.998 191.571C169.576 183.656 171.295 182.542 179.464 183.181L196.875 186.954C201.958 186.463 204.414 182.444 204.25 174.897C205.707 174.062 207.082 173.236 208.383 172.425L207.131 166.376C208.645 164.223 209.873 162.005 210.815 159.705C206.82 156.848 205.813 154.139 207.794 151.593C211.248 149.662 212.018 147.558 210.094 145.282C201.606 137.736 198.594 128.322 199.339 116.985C196.097 92.4129 176.19 79.9219 152.42 82.2712C149.203 81.4362 148.974 78.6205 151.724 73.8238C158.469 71.4091 155.522 65.2291 152.362 60.8172C148.499 63.5266 146.919 61.4557 146.24 57.2975L144.054 53.5486C140.78 59.4502 136.041 62.9781 136.147 53.1393C134.404 53.3112 132.848 52.6809 131.465 51.2403C129.108 54.3671 126.922 55.3412 124.925 54.1379C122.518 55.2757 119.997 56.2579 117.37 57.0928C114.521 55.6686 111.542 54.7764 108.431 54.4408C108.153 55.7832 107.482 56.7982 106.418 57.4857C103.512 57.0274 100.393 57.3875 97.07 58.5908C94.3279 61.2265 91.946 62.1187 89.916 61.2592C89.9406 67.1445 86.871 70.9016 82.7292 65.1145C86.3881 70.1322 86.3472 73.1117 82.6146 74.053C82.8438 76.8033 81.5587 79.2426 78.7593 81.3871C75.0267 83.368 74.4456 85.5617 77.0076 87.9682C78.3255 89.9163 78.1536 92.4293 76.5165 95.4906C76.2218 98.2491 76.8766 100.999 78.4646 103.741C77.0322 105.108 77.0976 106.696 78.6529 108.522C78.9557 111.329 79.6597 116.838 80.691 119.302C84.3663 120.824 87.7223 123.534 88.3444 127.741C90.2598 128.404 91.6022 129.493 91.7741 131.621C97.0455 127.757 100.033 127.79 100.958 134.936C105.878 135.313 111.288 138.235 110.183 143.776C112.622 152.404 118.008 160.098 123.648 166.998C127.724 180.16 123.509 195.786 120.03 208.662C120.03 208.662 120.439 209.538 121.25 211.298L108.03 211.584C99.5912 211.682 91.6431 209.661 84.2271 206.141C77.8916 203.137 71.7362 205.093 66.9887 209.71C50.6424 225.622 51.8211 246.159 67.0705 261.499L82.0416 276.56C83.0321 277.559 82.6965 279.646 81.9516 280.088C77.1959 282.92 51.4691 257.504 42.8253 249.262C30.3508 237.368 21.2322 224.018 15.9854 207.442C13.5707 199.789 11.2624 192.259 12.2692 183.942C12.4493 182.469 12.6048 180.455 12.6048 180.455C13.5625 176.068 15.9526 172.466 18.3837 168.709L10.5339 161.932C-1.71147 151.34 -3.34037 134.437 5.97463 121.185C11.2297 113.728 17.7862 107.932 27.0111 104.126C23.1722 100.091 23.8024 95.0322 22.7547 90.0719C21.0931 82.1484 19.2841 74.7406 20.7575 66.6288C22.1163 59.0983 24.179 51.9851 27.6905 45.1503C28.1325 44.3072 30.4408 41.3277 31.1693 40.4765C44.8962 24.5395 65.5808 14.717 86.0443 9.38008C116.15 1.53027 146.731 -1.81756 177.77 0.965476C209.865 3.83856 243.032 19.178 257.668 48.2035L257.995 48.8583C265.141 62.176 261.564 72.8252 253.452 86.6749C265.133 88.9013 274.391 95.6707 279.195 104.314C288.748 121.487 282.445 142.115 265.984 152.96Z" fill="var(--fill-0, #135D68)"/>
</g>
<defs>
<clipPath id="clip0_0_44">
<rect width="283.682" height="280.309" fill="white"/>
</clipPath>
</defs>
</svg>
